<svg width="72" height="77" viewBox="0 0 72 77" fill="none" xmlns="http://www.w3.org/2000/svg">
<path d="M60.0704 28.9325C59.922 29.0162 59.7758 29.1009 59.6319 29.1867C59.739 29.3158 59.8438 29.4474 59.9465 29.5814L60.0704 28.9325ZM60.0704 28.9325C60.1769 29.0627 60.2813 29.1952 60.3836 29.3301L60.0704 28.9325ZM53.4761 40.1213H52.9761C52.9761 40.1062 52.9688 40.3125 52.973 40.5422C52.9776 40.7938 52.9949 41.1404 53.0448 41.5603C53.1446 42.3995 53.3752 43.534 53.8989 44.7871C54.9178 47.2255 57.033 50.0799 61.3677 52.0809C60.4767 54.3947 58.7126 57.8611 56.4043 60.8222C53.9256 64.0019 50.9328 66.4546 47.8225 66.4976C46.0304 66.497 44.5984 65.9883 43.0341 65.4326C42.992 65.4176 42.9497 65.4026 42.9073 65.3875C41.298 64.8163 39.56 64.2198 37.271 64.2198C34.9187 64.2198 33.1061 64.7935 31.4777 65.3576C31.348 65.4026 31.2197 65.4473 31.0928 65.4916C29.6132 66.0077 28.3035 66.4645 26.7882 66.4978L26.7848 66.4978C25.2681 66.5413 23.7269 65.9221 22.2159 64.8391C20.7066 63.7573 19.2631 62.2377 17.9557 60.5484C15.3403 57.1686 13.326 53.1829 12.4574 50.8894C11.1495 47.3834 10.5 43.9986 10.5 40.7322C10.5 35.2187 12.4964 31.1448 15.401 28.4325C18.313 25.7133 22.1643 24.3382 25.9048 24.2817L53.4761 40.1213ZM53.4761 40.1213C53.4761 40.128 53.4757 40.1401 53.4752 40.1575C53.4567 40.7742 53.2395 48.0165 62 51.8161M53.4761 40.1213L62 51.8161M62 51.8161C60.3146 56.4991 54.5398 66.9086 47.8257 66.9976C45.9447 66.9976 44.4399 66.4628 42.8887 65.9115C41.2384 65.325 39.5355 64.7198 37.271 64.7198C34.8197 64.7198 32.9748 65.364 31.2465 65.9676C29.7799 66.4797 28.3972 66.9626 26.7991 66.9976L62 51.8161ZM39.9527 14.7874L39.9527 14.7874L39.9575 14.7823C41.9643 12.6315 45.4331 10.8578 48.5113 10.5379C48.6073 12.1136 48.5282 15.3452 45.2893 18.887C42.7626 21.6056 39.768 23.1937 36.5249 23.1129C36.384 19.9509 37.7131 17.1215 39.9527 14.7874Z" fill="white" stroke="#F2FCFF"/>
</svg>
