<svg width="95" height="95" viewBox="0 0 95 95" fill="none" xmlns="http://www.w3.org/2000/svg">
<path d="M15.8333 86.3333C13.6792 86.3333 11.8351 85.5663 10.301 84.0323C8.76701 82.4983 8 80.6542 8 78.5V31.5C8 29.3458 8.76701 27.5017 10.301 25.9677C11.8351 24.4337 13.6792 23.6667 15.8333 23.6667H31.5V15.8333C31.5 13.6792 32.267 11.8351 33.801 10.301C35.3351 8.76701 37.1792 8 39.3333 8H55C57.1542 8 58.9983 8.76701 60.5323 10.301C62.0663 11.8351 62.8333 13.6792 62.8333 15.8333V23.6667H78.5C80.6542 23.6667 82.4983 24.4337 84.0323 25.9677C85.5663 27.5017 86.3333 29.3458 86.3333 31.5V78.5C86.3333 80.6542 85.5663 82.4983 84.0323 84.0323C82.4983 85.5663 80.6542 86.3333 78.5 86.3333H15.8333ZM15.8333 78.5H78.5V31.5H15.8333V78.5ZM39.3333 23.6667H55V15.8333H39.3333V23.6667ZM43.25 58.9167V70.6667H51.0833V58.9167H62.8333V51.0833H51.0833V39.3333H43.25V51.0833H31.5V58.9167H43.25Z" fill="#296466"/>
</svg>
