<svg width="91" height="95" viewBox="0 0 91 95" fill="none" xmlns="http://www.w3.org/2000/svg">
<path d="M60.875 78.5H64.7917V62.8333H60.875V78.5ZM62.8333 58.9167C63.3556 58.9167 63.8125 58.7208 64.2042 58.3292C64.5958 57.9375 64.7917 57.4806 64.7917 56.9583C64.7917 56.4361 64.5958 55.9792 64.2042 55.5875C63.8125 55.1958 63.3556 55 62.8333 55C62.3111 55 61.8542 55.1958 61.4625 55.5875C61.0708 55.9792 60.875 56.4361 60.875 56.9583C60.875 57.4806 61.0708 57.9375 61.4625 58.3292C61.8542 58.7208 62.3111 58.9167 62.8333 58.9167ZM23.6667 55H38.0604C38.7785 53.4986 39.6108 52.0951 40.5573 50.7896C41.5038 49.484 42.5646 48.2764 43.7396 47.1667H23.6667V55ZM23.6667 70.6667H35.7104C35.5146 69.3611 35.4167 68.0556 35.4167 66.75C35.4167 65.4444 35.5146 64.1389 35.7104 62.8333H23.6667V70.6667ZM15.8333 86.3333C13.6792 86.3333 11.8351 85.5663 10.301 84.0323C8.76701 82.4983 8 80.6542 8 78.5V15.8333C8 13.6792 8.76701 11.8351 10.301 10.301C11.8351 8.76701 13.6792 8 15.8333 8H47.1667L70.6667 31.5V40.5083C69.4264 40.1167 68.1535 39.8229 66.8479 39.6271C65.5424 39.4312 64.2042 39.3333 62.8333 39.3333V35.4167H43.25V15.8333H15.8333V78.5H38.0604C38.7785 80.0014 39.6108 81.4049 40.5573 82.7104C41.5038 84.016 42.5646 85.2236 43.7396 86.3333H15.8333ZM62.8333 47.1667C68.2514 47.1667 72.8698 49.076 76.6885 52.8948C80.5073 56.7135 82.4167 61.3319 82.4167 66.75C82.4167 72.1681 80.5073 76.7865 76.6885 80.6052C72.8698 84.424 68.2514 86.3333 62.8333 86.3333C57.4153 86.3333 52.7969 84.424 48.9781 80.6052C45.1594 76.7865 43.25 72.1681 43.25 66.75C43.25 61.3319 45.1594 56.7135 48.9781 52.8948C52.7969 49.076 57.4153 47.1667 62.8333 47.1667Z" fill="#296466"/>
</svg>
