<svg width="94" height="94" viewBox="0 0 94 94" fill="none" xmlns="http://www.w3.org/2000/svg">
<mask id="mask0_162_768" style="mask-type:alpha" maskUnits="userSpaceOnUse" x="0" y="0" width="94" height="94">
<rect width="94" height="94" fill="#D9D9D9"/>
</mask>
<g mask="url(#mask0_162_768)">
<path d="M47.0002 86.1667C41.5821 86.1667 36.4904 85.1385 31.7252 83.0823C26.9599 81.026 22.8147 78.2354 19.2897 74.7104C15.7647 71.1854 12.9741 67.0403 10.9179 62.275C8.86162 57.5097 7.8335 52.4181 7.8335 47C7.8335 39.5583 9.77551 32.6878 13.6595 26.3885C17.5436 20.0892 22.8147 15.275 29.4731 11.9458C29.5384 13.1861 29.6689 14.4427 29.8647 15.7156C30.0606 16.9885 30.387 18.4736 30.8439 20.1708C26.1439 23.0431 22.4394 26.8455 19.7304 31.5781C17.0213 36.3108 15.6668 41.4514 15.6668 47C15.6668 55.7472 18.7022 63.1562 24.7731 69.2271C30.8439 75.2979 38.2529 78.3333 47.0002 78.3333C55.7474 78.3333 63.1564 75.2979 69.2272 69.2271C75.2981 63.1562 78.3335 55.7472 78.3335 47C78.3335 41.4514 76.979 36.2944 74.27 31.5292C71.5609 26.7639 67.8238 22.9451 63.0585 20.0729C63.5154 18.3757 63.8418 16.8906 64.0377 15.6177C64.2335 14.3448 64.3967 13.1208 64.5272 11.9458C71.1856 15.275 76.4568 20.0729 80.3408 26.3396C84.2248 32.6062 86.1668 39.4931 86.1668 47C86.1668 52.4181 85.1387 57.5097 83.0825 62.275C81.0262 67.0403 78.2356 71.1854 74.7106 74.7104C71.1856 78.2354 67.0404 81.026 62.2752 83.0823C57.5099 85.1385 52.4182 86.1667 47.0002 86.1667ZM47.0002 70.5C40.4724 70.5 34.9238 68.2153 30.3543 63.6458C25.7849 59.0764 23.5002 53.5278 23.5002 47C23.5002 43.2139 24.3325 39.6562 25.997 36.3271C27.6616 32.9979 30.0279 30.2236 33.096 28.0042C33.4224 28.9833 33.7814 30.1094 34.1731 31.3823C34.5647 32.6552 35.087 34.2382 35.7397 36.1312C34.3036 37.6326 33.2102 39.2972 32.4595 41.125C31.7088 42.9528 31.3335 44.9111 31.3335 47C31.3335 51.3083 32.8675 54.9965 35.9356 58.0646C39.0036 61.1326 42.6918 62.6667 47.0002 62.6667C51.3085 62.6667 54.9967 61.1326 58.0647 58.0646C61.1328 54.9965 62.6668 51.3083 62.6668 47C62.6668 44.9111 62.2915 42.9528 61.5408 41.125C60.7901 39.2972 59.6967 37.6326 58.2606 36.1312C58.7828 34.5646 59.2561 33.1122 59.6804 31.774C60.1047 30.4358 60.48 29.1792 60.8064 28.0042C63.8745 30.2236 66.2571 32.9979 67.9543 36.3271C69.6516 39.6562 70.5002 43.2139 70.5002 47C70.5002 53.5278 68.2154 59.0764 63.646 63.6458C59.0766 68.2153 53.5279 70.5 47.0002 70.5ZM43.0835 33.2917C40.6682 25.9806 39.0852 20.8399 38.3345 17.8698C37.5838 14.8997 37.2085 12.2069 37.2085 9.79167C37.2085 7.05 38.155 4.73264 40.0481 2.83958C41.9411 0.946528 44.2585 0 47.0002 0C49.7418 0 52.0592 0.946528 53.9522 2.83958C55.8453 4.73264 56.7918 7.05 56.7918 9.79167C56.7918 12.2069 56.4165 14.8997 55.6658 17.8698C54.9151 20.8399 53.3321 25.9806 50.9168 33.2917H43.0835ZM47.0002 54.8333C44.846 54.8333 43.0019 54.0663 41.4679 52.5323C39.9338 50.9983 39.1668 49.1542 39.1668 47C39.1668 44.8458 39.9338 43.0017 41.4679 41.4677C43.0019 39.9337 44.846 39.1667 47.0002 39.1667C49.1543 39.1667 50.9984 39.9337 52.5325 41.4677C54.0665 43.0017 54.8335 44.8458 54.8335 47C54.8335 49.1542 54.0665 50.9983 52.5325 52.5323C50.9984 54.0663 49.1543 54.8333 47.0002 54.8333Z" fill="#296466"/>
</g>
</svg>
